<?xml version="1.0" encoding="UTF-8" standalone="no"?>
<!-- Created with Inkscape (http://www.inkscape.org/) -->

<svg
   xmlns:dc="http://purl.org/dc/elements/1.1/"
   xmlns:cc="http://creativecommons.org/ns#"
   xmlns:rdf="http://www.w3.org/1999/02/22-rdf-syntax-ns#"
   xmlns:svg="http://www.w3.org/2000/svg"
   xmlns="http://www.w3.org/2000/svg"
   xmlns:xlink="http://www.w3.org/1999/xlink"
   xmlns:sodipodi="http://sodipodi.sourceforge.net/DTD/sodipodi-0.dtd"
   xmlns:inkscape="http://www.inkscape.org/namespaces/inkscape"
   width="744.09448819"
   height="1052.3622047"
   id="svg2999"
   version="1.1"
   inkscape:version="0.48.2 r9819"
   sodipodi:docname="bullets.svg">
  <defs
     id="defs3001">
    <linearGradient
       inkscape:collect="always"
       id="linearGradient3783">
      <stop
         style="stop-color:#eeeeee;stop-opacity:1;"
         offset="0"
         id="stop3785" />
      <stop
         style="stop-color:#eeeeee;stop-opacity:0;"
         offset="1"
         id="stop3787" />
    </linearGradient>
    <radialGradient
       inkscape:collect="always"
       xlink:href="#linearGradient3783"
       id="radialGradient3806"
       gradientUnits="userSpaceOnUse"
       cx="285.71429"
       cy="493.79074"
       fx="285.71429"
       fy="493.79074"
       r="18.571428" />
    <radialGradient
       inkscape:collect="always"
       xlink:href="#linearGradient3783"
       id="radialGradient3835"
       gradientUnits="userSpaceOnUse"
       cx="285.71429"
       cy="493.79074"
       fx="285.71429"
       fy="493.79074"
       r="18.571428" />
    <radialGradient
       inkscape:collect="always"
       xlink:href="#linearGradient3783"
       id="radialGradient3845"
       gradientUnits="userSpaceOnUse"
       cx="285.71429"
       cy="493.79074"
       fx="285.71429"
       fy="493.79074"
       r="18.571428" />
    <radialGradient
       inkscape:collect="always"
       xlink:href="#linearGradient3783"
       id="radialGradient3855"
       gradientUnits="userSpaceOnUse"
       cx="285.71429"
       cy="493.79074"
       fx="285.71429"
       fy="493.79074"
       r="18.571428" />
    <linearGradient
       inkscape:collect="always"
       xlink:href="#linearGradient3783"
       id="linearGradient3793"
       x1="172.35727"
       y1="464.70593"
       x2="172.35727"
       y2="502.71628"
       gradientUnits="userSpaceOnUse"
       gradientTransform="matrix(1.5000001,0,0,1.038961,-85.989242,-18.853201)" />
    <linearGradient
       inkscape:collect="always"
       xlink:href="#linearGradient3783"
       id="linearGradient3800"
       gradientUnits="userSpaceOnUse"
       gradientTransform="matrix(1.5000001,0,0,1.038961,-85.989242,-18.853201)"
       x1="172.35727"
       y1="464.70593"
       x2="172.35727"
       y2="502.71628" />
  </defs>
  <sodipodi:namedview
     id="base"
     pagecolor="#ffffff"
     bordercolor="#666666"
     borderopacity="1.0"
     inkscape:pageopacity="0.0"
     inkscape:pageshadow="2"
     inkscape:zoom="7.9195959"
     inkscape:cx="178.66415"
     inkscape:cy="557.21252"
     inkscape:document-units="px"
     inkscape:current-layer="layer1"
     showgrid="false"
     inkscape:window-width="1749"
     inkscape:window-height="1004"
     inkscape:window-x="78"
     inkscape:window-y="42"
     inkscape:window-maximized="0"
     showguides="true"
     inkscape:guide-bbox="true" />
  <metadata
     id="metadata3004">
    <rdf:RDF>
      <cc:Work
         rdf:about="">
        <dc:format>image/svg+xml</dc:format>
        <dc:type
           rdf:resource="http://purl.org/dc/dcmitype/StillImage" />
        <dc:title></dc:title>
      </cc:Work>
    </rdf:RDF>
  </metadata>
  <g
     inkscape:label="Layer 1"
     inkscape:groupmode="layer"
     id="layer1">
    <g
       id="g3801"
       transform="matrix(0.43664719,0,0,0.43664719,79.229635,254.042)"
       inkscape:export-filename="/Users/erikskoglund/Documents/ruby/shmup/content/gfx/bullet_purple.png"
       inkscape:export-xdpi="90"
       inkscape:export-ydpi="90">
      <path
         sodipodi:type="arc"
         style="fill:#000000;fill-opacity:1;stroke:none"
         id="path3799"
         sodipodi:cx="285.71429"
         sodipodi:cy="493.79074"
         sodipodi:rx="18.571428"
         sodipodi:ry="18.571428"
         d="m 304.28572,493.79074 c 0,10.25672 -8.31471,18.57143 -18.57143,18.57143 -10.25671,0 -18.57142,-8.31471 -18.57142,-18.57143 0,-10.25672 8.31471,-18.57143 18.57142,-18.57143 10.25672,0 18.57143,8.31471 18.57143,18.57143 z"
         transform="matrix(0.98653844,0,0,0.98653844,-1.3137944,4.0415723)" />
      <path
         transform="matrix(0.86153847,0,0,0.86153847,34.400493,65.765416)"
         d="m 304.28572,493.79074 c 0,10.25672 -8.31471,18.57143 -18.57143,18.57143 -10.25671,0 -18.57142,-8.31471 -18.57142,-18.57143 0,-10.25672 8.31471,-18.57143 18.57142,-18.57143 10.25672,0 18.57143,8.31471 18.57143,18.57143 z"
         sodipodi:ry="18.571428"
         sodipodi:rx="18.571428"
         sodipodi:cy="493.79074"
         sodipodi:cx="285.71429"
         id="path3007"
         style="fill:#ff00ff;fill-opacity:1;stroke:none"
         sodipodi:type="arc" />
      <path
         sodipodi:type="arc"
         style="fill:url(#radialGradient3806);fill-opacity:1;stroke:none"
         id="path3013"
         sodipodi:cx="285.71429"
         sodipodi:cy="493.79074"
         sodipodi:rx="18.571428"
         sodipodi:ry="18.571428"
         d="m 304.28572,493.79074 c 0,10.25672 -8.31471,18.57143 -18.57143,18.57143 -10.25671,0 -18.57142,-8.31471 -18.57142,-18.57143 0,-10.25672 8.31471,-18.57143 18.57142,-18.57143 10.25672,0 18.57143,8.31471 18.57143,18.57143 z"
         transform="matrix(0.7798077,0,0,0.7798077,57.752142,106.12331)" />
    </g>
    <g
       transform="matrix(0.43664719,0,0,0.43664719,116.22647,253.91573)"
       id="g3827"
       inkscape:export-filename="/Users/erikskoglund/Documents/ruby/shmup/content/gfx/bullet_green.png"
       inkscape:export-xdpi="90"
       inkscape:export-ydpi="90">
      <path
         transform="matrix(0.98653844,0,0,0.98653844,-1.3137944,4.0415723)"
         d="m 304.28572,493.79074 c 0,10.25672 -8.31471,18.57143 -18.57143,18.57143 -10.25671,0 -18.57142,-8.31471 -18.57142,-18.57143 0,-10.25672 8.31471,-18.57143 18.57142,-18.57143 10.25672,0 18.57143,8.31471 18.57143,18.57143 z"
         sodipodi:ry="18.571428"
         sodipodi:rx="18.571428"
         sodipodi:cy="493.79074"
         sodipodi:cx="285.71429"
         id="path3829"
         style="fill:#000000;fill-opacity:1;stroke:none"
         sodipodi:type="arc" />
      <path
         sodipodi:type="arc"
         style="fill:#98fc66;fill-opacity:1;stroke:none"
         id="path3831"
         sodipodi:cx="285.71429"
         sodipodi:cy="493.79074"
         sodipodi:rx="18.571428"
         sodipodi:ry="18.571428"
         d="m 304.28572,493.79074 c 0,10.25672 -8.31471,18.57143 -18.57143,18.57143 -10.25671,0 -18.57142,-8.31471 -18.57142,-18.57143 0,-10.25672 8.31471,-18.57143 18.57142,-18.57143 10.25672,0 18.57143,8.31471 18.57143,18.57143 z"
         transform="matrix(0.86153847,0,0,0.86153847,34.400493,65.765416)" />
      <path
         transform="matrix(0.7798077,0,0,0.7798077,57.752142,106.12331)"
         d="m 304.28572,493.79074 c 0,10.25672 -8.31471,18.57143 -18.57143,18.57143 -10.25671,0 -18.57142,-8.31471 -18.57142,-18.57143 0,-10.25672 8.31471,-18.57143 18.57142,-18.57143 10.25672,0 18.57143,8.31471 18.57143,18.57143 z"
         sodipodi:ry="18.571428"
         sodipodi:rx="18.571428"
         sodipodi:cy="493.79074"
         sodipodi:cx="285.71429"
         id="path3833"
         style="fill:url(#radialGradient3835);fill-opacity:1;stroke:none"
         sodipodi:type="arc" />
    </g>
    <g
       transform="matrix(0.43664719,0,0,0.43664719,79.608442,292.30153)"
       id="g3837"
       inkscape:export-filename="/Users/erikskoglund/Documents/ruby/shmup/content/gfx/bullet_blue.png"
       inkscape:export-xdpi="90"
       inkscape:export-ydpi="90">
      <path
         transform="matrix(0.98653844,0,0,0.98653844,-1.3137944,4.0415723)"
         d="m 304.28572,493.79074 c 0,10.25672 -8.31471,18.57143 -18.57143,18.57143 -10.25671,0 -18.57142,-8.31471 -18.57142,-18.57143 0,-10.25672 8.31471,-18.57143 18.57142,-18.57143 10.25672,0 18.57143,8.31471 18.57143,18.57143 z"
         sodipodi:ry="18.571428"
         sodipodi:rx="18.571428"
         sodipodi:cy="493.79074"
         sodipodi:cx="285.71429"
         id="path3839"
         style="fill:#000000;fill-opacity:1;stroke:none"
         sodipodi:type="arc" />
      <path
         sodipodi:type="arc"
         style="fill:#0197fd;fill-opacity:1;stroke:none"
         id="path3841"
         sodipodi:cx="285.71429"
         sodipodi:cy="493.79074"
         sodipodi:rx="18.571428"
         sodipodi:ry="18.571428"
         d="m 304.28572,493.79074 c 0,10.25672 -8.31471,18.57143 -18.57143,18.57143 -10.25671,0 -18.57142,-8.31471 -18.57142,-18.57143 0,-10.25672 8.31471,-18.57143 18.57142,-18.57143 10.25672,0 18.57143,8.31471 18.57143,18.57143 z"
         transform="matrix(0.86153847,0,0,0.86153847,34.400493,65.765416)" />
      <path
         transform="matrix(0.7798077,0,0,0.7798077,57.752142,106.12331)"
         d="m 304.28572,493.79074 c 0,10.25672 -8.31471,18.57143 -18.57143,18.57143 -10.25671,0 -18.57142,-8.31471 -18.57142,-18.57143 0,-10.25672 8.31471,-18.57143 18.57142,-18.57143 10.25672,0 18.57143,8.31471 18.57143,18.57143 z"
         sodipodi:ry="18.571428"
         sodipodi:rx="18.571428"
         sodipodi:cy="493.79074"
         sodipodi:cx="285.71429"
         id="path3843"
         style="fill:url(#radialGradient3845);fill-opacity:1;stroke:none"
         sodipodi:type="arc" />
    </g>
    <g
       transform="matrix(0.43664719,0,0,0.43664719,116.35274,293.69049)"
       id="g3847"
       inkscape:export-filename="/Users/erikskoglund/Documents/ruby/shmup/content/gfx/bullet_yellow.png"
       inkscape:export-xdpi="90"
       inkscape:export-ydpi="90">
      <path
         transform="matrix(0.98653844,0,0,0.98653844,-1.3137944,4.0415723)"
         d="m 304.28572,493.79074 c 0,10.25672 -8.31471,18.57143 -18.57143,18.57143 -10.25671,0 -18.57142,-8.31471 -18.57142,-18.57143 0,-10.25672 8.31471,-18.57143 18.57142,-18.57143 10.25672,0 18.57143,8.31471 18.57143,18.57143 z"
         sodipodi:ry="18.571428"
         sodipodi:rx="18.571428"
         sodipodi:cy="493.79074"
         sodipodi:cx="285.71429"
         id="path3849"
         style="fill:#000000;fill-opacity:1;stroke:none"
         sodipodi:type="arc" />
      <path
         sodipodi:type="arc"
         style="fill:#ffff00;fill-opacity:1;stroke:none"
         id="path3851"
         sodipodi:cx="285.71429"
         sodipodi:cy="493.79074"
         sodipodi:rx="18.571428"
         sodipodi:ry="18.571428"
         d="m 304.28572,493.79074 c 0,10.25672 -8.31471,18.57143 -18.57143,18.57143 -10.25671,0 -18.57142,-8.31471 -18.57142,-18.57143 0,-10.25672 8.31471,-18.57143 18.57142,-18.57143 10.25672,0 18.57143,8.31471 18.57143,18.57143 z"
         transform="matrix(0.86153847,0,0,0.86153847,34.400493,65.765416)" />
      <path
         transform="matrix(0.7798077,0,0,0.7798077,57.752142,106.12331)"
         d="m 304.28572,493.79074 c 0,10.25672 -8.31471,18.57143 -18.57143,18.57143 -10.25671,0 -18.57142,-8.31471 -18.57142,-18.57143 0,-10.25672 8.31471,-18.57143 18.57142,-18.57143 10.25672,0 18.57143,8.31471 18.57143,18.57143 z"
         sodipodi:ry="18.571428"
         sodipodi:rx="18.571428"
         sodipodi:cy="493.79074"
         sodipodi:cx="285.71429"
         id="path3853"
         style="fill:url(#radialGradient3855);fill-opacity:1;stroke:none"
         sodipodi:type="arc" />
    </g>
    <g
       id="g3795"
       inkscape:export-filename="/Users/erikskoglund/Documents/ruby/shmup/content/gfx/bullet_player_1.png"
       inkscape:export-xdpi="90"
       inkscape:export-ydpi="90"
       transform="matrix(0,0.87995515,-0.92884149,0,598.90125,328.29264)">
      <rect
         y="463.44324"
         x="169.70563"
         height="40.911179"
         width="4.5456862"
         id="rect3013"
         style="fill:#000000;fill-opacity:1;stroke:none" />
      <rect
         style="fill:#0197fd;fill-opacity:1;stroke:none"
         id="rect3015"
         width="2.5253811"
         height="38.890873"
         x="170.71577"
         y="464.4534" />
      <rect
         y="463.69577"
         x="170.08443"
         height="40.406101"
         width="3.7880719"
         id="rect3017"
         style="fill:url(#linearGradient3800);fill-opacity:1;stroke:none" />
    </g>
  </g>
</svg>
