<?xml version="1.0" encoding="UTF-8" standalone="no"?>
<!-- Created with Inkscape (http://www.inkscape.org/) -->

<svg
   xmlns:dc="http://purl.org/dc/elements/1.1/"
   xmlns:cc="http://creativecommons.org/ns#"
   xmlns:rdf="http://www.w3.org/1999/02/22-rdf-syntax-ns#"
   xmlns:svg="http://www.w3.org/2000/svg"
   xmlns="http://www.w3.org/2000/svg"
   xmlns:xlink="http://www.w3.org/1999/xlink"
   xmlns:sodipodi="http://sodipodi.sourceforge.net/DTD/sodipodi-0.dtd"
   xmlns:inkscape="http://www.inkscape.org/namespaces/inkscape"
   width="744.09448819"
   height="1052.3622047"
   id="svg3005"
   version="1.1"
   inkscape:version="0.48.2 r9819"
   sodipodi:docname="Nytt dokument 1">
  <defs
     id="defs3007">
    <linearGradient
       inkscape:collect="always"
       id="linearGradient3801">
      <stop
         style="stop-color:#ffffff;stop-opacity:1;"
         offset="0"
         id="stop3803" />
      <stop
         style="stop-color:#ffffff;stop-opacity:0;"
         offset="1"
         id="stop3805" />
    </linearGradient>
    <radialGradient
       inkscape:collect="always"
       xlink:href="#linearGradient3801"
       id="radialGradient3807"
       cx="333.35034"
       cy="422.02701"
       fx="333.35034"
       fy="422.02701"
       r="54.548237"
       gradientUnits="userSpaceOnUse" />
  </defs>
  <sodipodi:namedview
     id="base"
     pagecolor="#ffffff"
     bordercolor="#666666"
     borderopacity="1.0"
     inkscape:pageopacity="0.0"
     inkscape:pageshadow="2"
     inkscape:zoom="2.8"
     inkscape:cx="280.66779"
     inkscape:cy="583.93861"
     inkscape:document-units="px"
     inkscape:current-layer="layer1"
     showgrid="false"
     inkscape:window-width="1817"
     inkscape:window-height="996"
     inkscape:window-x="88"
     inkscape:window-y="42"
     inkscape:window-maximized="0" />
  <metadata
     id="metadata3010">
    <rdf:RDF>
      <cc:Work
         rdf:about="">
        <dc:format>image/svg+xml</dc:format>
        <dc:type
           rdf:resource="http://purl.org/dc/dcmitype/StillImage" />
        <dc:title></dc:title>
      </cc:Work>
    </rdf:RDF>
  </metadata>
  <g
     inkscape:label="Layer 1"
     inkscape:groupmode="layer"
     id="layer1">
    <g
       id="g3809">
      <path
         transform="matrix(0.29331837,0,0,0.29331837,202.38147,329.64411)"
         d="m 387.89858,422.02701 a 54.548237,54.548237 0 1 1 -109.09648,0 54.548237,54.548237 0 1 1 109.09648,0 z"
         sodipodi:ry="54.548237"
         sodipodi:rx="54.548237"
         sodipodi:cy="422.02701"
         sodipodi:cx="333.35034"
         id="path3013"
         style="fill:#f44800;fill-opacity:1;stroke:none"
         sodipodi:type="arc" />
      <path
         sodipodi:type="arc"
         style="fill:#ffff99;fill-opacity:1;stroke:none"
         id="path3015"
         sodipodi:cx="333.35034"
         sodipodi:cy="422.02701"
         sodipodi:rx="54.548237"
         sodipodi:ry="54.548237"
         d="m 387.89858,422.02701 a 54.548237,54.548237 0 1 1 -109.09648,0 54.548237,54.548237 0 1 1 109.09648,0 z"
         transform="matrix(0.21475095,0,0,0.21475095,228.57195,362.80168)" />
      <path
         transform="matrix(0.1034471,0,0,0.1034471,255.67513,409.77491)"
         d="m 387.89858,422.02701 a 54.548237,54.548237 0 1 1 -109.09648,0 54.548237,54.548237 0 1 1 109.09648,0 z"
         sodipodi:ry="54.548237"
         sodipodi:rx="54.548237"
         sodipodi:cy="422.02701"
         sodipodi:cx="333.35034"
         id="path3017"
         style="fill:#f0a513;fill-opacity:1;stroke:none"
         sodipodi:type="arc" />
      <path
         sodipodi:type="arc"
         style="fill:#f0a513;fill-opacity:1;stroke:none"
         id="path3019"
         sodipodi:cx="333.35034"
         sodipodi:cy="422.02701"
         sodipodi:rx="54.548237"
         sodipodi:ry="54.548237"
         d="m 387.89858,422.02701 a 54.548237,54.548237 0 1 1 -109.09648,0 54.548237,54.548237 0 1 1 109.09648,0 z"
         transform="matrix(0.1034471,0,0,0.1034471,275.67513,409.77491)" />
      <path
         transform="matrix(0.2802238,0,0,0.03797425,206.74656,437.40622)"
         d="m 387.89858,422.02701 a 54.548237,54.548237 0 1 1 -109.09648,0 54.548237,54.548237 0 1 1 109.09648,0 z"
         sodipodi:ry="54.548237"
         sodipodi:rx="54.548237"
         sodipodi:cy="422.02701"
         sodipodi:cx="333.35034"
         id="path3021"
         style="fill:#eec73e;fill-opacity:1;stroke:none"
         sodipodi:type="arc" />
      <path
         sodipodi:type="arc"
         style="fill:url(#radialGradient3807);fill-opacity:1;stroke:none"
         id="path3023"
         sodipodi:cx="333.35034"
         sodipodi:cy="422.02701"
         sodipodi:rx="54.548237"
         sodipodi:ry="54.548237"
         d="m 387.89858,422.02701 a 54.548237,54.548237 0 1 1 -109.09648,0 54.548237,54.548237 0 1 1 109.09648,0 z"
         transform="matrix(0.29331837,0,0,0.29331837,202.38147,329.64411)" />
    </g>
  </g>
</svg>
